<?xml version="1.0" encoding="utf-8"?>
<!-- Generator: Adobe Illustrator 27.9.0, SVG Export Plug-In . SVG Version: 6.00 Build 0)  -->
<svg version="1.1" id="Flat" xmlns="http://www.w3.org/2000/svg" xmlns:xlink="http://www.w3.org/1999/xlink" x="0px" y="0px"
	 viewBox="0 0 800 800" style="enable-background:new 0 0 800 800;" xml:space="preserve">
<path d="M239.7,33.6C365.8-21.6,511.5-8.2,625.3,69.2C579,131.9,520.7,184.9,453.8,224.9C397.6,146.1,324.4,80.7,239.7,33.6z
	 M398.8,254c-58-79.1-134.9-142.5-223.7-184.4C97.5,122.5,40.9,200.8,15.1,291c45.5,11.1,92.1,16.7,138.9,16.7
	C238.5,307.8,322.1,289.4,398.8,254z M800,375.7c-6.2-102.3-51.5-198.2-126.6-268c-50.5,67.9-113.8,125.3-186.3,169
	c21.1,36.5,38.6,75,52.1,115C624.1,368.7,712.9,363.3,800,375.7L800,375.7z M556.2,450.9c11.4,48.5,17.2,98.1,17.1,148
	c0,58.2-7.9,116.1-23.4,172.2c138.7-56,234.7-184.5,249-333.3C718,425.2,635.3,429.6,556.2,450.9L556.2,450.9z M480.6,410.6
	c-12.4-36.4-28.4-71.4-47.7-104.6c-87,41.7-182.3,63.3-278.9,63.2c-50.9,0-101.6-6-151.1-17.8C-13.4,485,38.6,617.8,141.4,704.8
	C215.9,569.6,336.2,465.3,480.6,410.6z M191.7,741.2c85.9,52.5,188.4,70.7,287.1,51c21.8-62.2,32.9-127.6,32.9-193.5
	c0-43.3-4.8-86.5-14.4-128.7C366.3,521.1,257.9,617.3,191.7,741.2z"/>
</svg>
